<svg width="512" height="512" viewBox="0 0 512 512" fill="none" xmlns="http://www.w3.org/2000/svg">
<rect x="10" y="10" width="492" height="492" rx="246" fill="white"/>
<path d="M203.5 131H308.5C348.5 131 381 163.5 381 203.5V308.5C381 327.728 373.362 346.169 359.765 359.765C346.169 373.362 327.728 381 308.5 381H203.5C163.5 381 131 348.5 131 308.5V203.5C131 184.272 138.638 165.831 152.235 152.235C165.831 138.638 184.272 131 203.5 131ZM201 156C189.065 156 177.619 160.741 169.18 169.18C160.741 177.619 156 189.065 156 201V311C156 335.875 176.125 356 201 356H311C322.935 356 334.381 351.259 342.82 342.82C351.259 334.381 356 322.935 356 311V201C356 176.125 335.875 156 311 156H201ZM321.625 174.75C325.769 174.75 329.743 176.396 332.674 179.326C335.604 182.257 337.25 186.231 337.25 190.375C337.25 194.519 335.604 198.493 332.674 201.424C329.743 204.354 325.769 206 321.625 206C317.481 206 313.507 204.354 310.576 201.424C307.646 198.493 306 194.519 306 190.375C306 186.231 307.646 182.257 310.576 179.326C313.507 176.396 317.481 174.75 321.625 174.75ZM256 193.5C272.576 193.5 288.473 200.085 300.194 211.806C311.915 223.527 318.5 239.424 318.5 256C318.5 272.576 311.915 288.473 300.194 300.194C288.473 311.915 272.576 318.5 256 318.5C239.424 318.5 223.527 311.915 211.806 300.194C200.085 288.473 193.5 272.576 193.5 256C193.5 239.424 200.085 223.527 211.806 211.806C223.527 200.085 239.424 193.5 256 193.5ZM256 218.5C246.054 218.5 236.516 222.451 229.483 229.483C222.451 236.516 218.5 246.054 218.5 256C218.5 265.946 222.451 275.484 229.483 282.517C236.516 289.549 246.054 293.5 256 293.5C265.946 293.5 275.484 289.549 282.517 282.517C289.549 275.484 293.5 265.946 293.5 256C293.5 246.054 289.549 236.516 282.517 229.483C275.484 222.451 265.946 218.5 256 218.5Z" fill="black"/>
<rect x="10" y="10" width="492" height="492" rx="246" stroke="black" stroke-width="20"/>
</svg>
