<svg width="512" height="512" viewBox="0 0 512 512" fill="none" xmlns="http://www.w3.org/2000/svg">
<rect x="10" y="10" width="492" height="492" rx="246" fill="white"/>
<path d="M343.5 143.5C350.13 143.5 356.489 146.134 361.178 150.822C365.866 155.511 368.5 161.87 368.5 168.5V343.5C368.5 350.13 365.866 356.489 361.178 361.178C356.489 365.866 350.13 368.5 343.5 368.5H168.5C161.87 368.5 155.511 365.866 150.822 361.178C146.134 356.489 143.5 350.13 143.5 343.5V168.5C143.5 161.87 146.134 155.511 150.822 150.822C155.511 146.134 161.87 143.5 168.5 143.5H343.5ZM337.25 337.25V271C337.25 260.192 332.957 249.828 325.315 242.185C317.672 234.543 307.308 230.25 296.5 230.25C285.875 230.25 273.5 236.75 267.5 246.5V232.625H232.625V337.25H267.5V275.625C267.5 266 275.25 258.125 284.875 258.125C289.516 258.125 293.967 259.969 297.249 263.251C300.531 266.533 302.375 270.984 302.375 275.625V337.25H337.25ZM192 213C197.57 213 202.911 210.788 206.849 206.849C210.788 202.911 213 197.57 213 192C213 180.375 203.625 170.875 192 170.875C186.397 170.875 181.024 173.101 177.062 177.062C173.101 181.024 170.875 186.397 170.875 192C170.875 203.625 180.375 213 192 213ZM209.375 337.25V232.625H174.75V337.25H209.375Z" fill="black"/>
<rect x="10" y="10" width="492" height="492" rx="246" stroke="black" stroke-width="20"/>
</svg>
